<?xml version="1.0" standalone="no"?>
<svg xmlns:xlink="http://www.w3.org/1999/xlink" id="wave" style="transform:rotate(0deg); transition: 0.3s" viewBox="0 0 1440 490" version="1.1" xmlns="http://www.w3.org/2000/svg"><defs><linearGradient id="sw-gradient-0" x1="0" x2="0" y1="1" y2="0"><stop stop-color="rgba(61, 61, 85, 1)" offset="0%"/><stop stop-color="rgba(29, 29, 40, 1)" offset="100%"/></linearGradient></defs><path style="transform:translate(0, 0px); opacity:1" fill="url(#sw-gradient-0)" d="M0,441L120,400.2C240,359,480,278,720,236.8C960,196,1200,196,1440,171.5C1680,147,1920,98,2160,81.7C2400,65,2640,82,2880,138.8C3120,196,3360,294,3600,294C3840,294,4080,196,4320,179.7C4560,163,4800,229,5040,228.7C5280,229,5520,163,5760,122.5C6000,82,6240,65,6480,73.5C6720,82,6960,114,7200,122.5C7440,131,7680,114,7920,138.8C8160,163,8400,229,8640,269.5C8880,310,9120,327,9360,351.2C9600,376,9840,408,10080,367.5C10320,327,10560,212,10800,196C11040,180,11280,261,11520,294C11760,327,12000,310,12240,285.8C12480,261,12720,229,12960,212.3C13200,196,13440,196,13680,179.7C13920,163,14160,131,14400,155.2C14640,180,14880,261,15120,269.5C15360,278,15600,212,15840,179.7C16080,147,16320,147,16560,130.7C16800,114,17040,82,17160,65.3L17280,49L17280,490L17160,490C17040,490,16800,490,16560,490C16320,490,16080,490,15840,490C15600,490,15360,490,15120,490C14880,490,14640,490,14400,490C14160,490,13920,490,13680,490C13440,490,13200,490,12960,490C12720,490,12480,490,12240,490C12000,490,11760,490,11520,490C11280,490,11040,490,10800,490C10560,490,10320,490,10080,490C9840,490,9600,490,9360,490C9120,490,8880,490,8640,490C8400,490,8160,490,7920,490C7680,490,7440,490,7200,490C6960,490,6720,490,6480,490C6240,490,6000,490,5760,490C5520,490,5280,490,5040,490C4800,490,4560,490,4320,490C4080,490,3840,490,3600,490C3360,490,3120,490,2880,490C2640,490,2400,490,2160,490C1920,490,1680,490,1440,490C1200,490,960,490,720,490C480,490,240,490,120,490L0,490Z"/></svg>